<svg xmlns="http://www.w3.org/2000/svg" width="660" height="332" viewBox="0 0 660 332">
<rect width="100%" height="100%" fill="white"/>
<rect x="20" y="18" width="11" height="11" fill="#f2aa45"/>
<text x="36" y="28" font-size="11" font-family="Times New Roman, serif">Linear</text>
<rect x="106" y="18" width="11" height="11" fill="#9bc75f"/>
<text x="122" y="28" font-size="11" font-family="Times New Roman, serif">Two-layer MLP</text>
<text x="165.0" y="63" text-anchor="middle" font-size="13" font-weight="600" font-family="Times New Roman, serif">(a) Native attribute decoding</text>
<line x1="42" y1="246.0" x2="318" y2="246.0" stroke="#999" stroke-width="0.6" stroke-dasharray="2 2"/>
<text x="35" y="249.0" text-anchor="end" font-size="9" font-family="Times New Roman, serif">0.0</text>
<line x1="42" y1="213.2" x2="318" y2="213.2" stroke="#999" stroke-width="0.6" stroke-dasharray="2 2"/>
<text x="35" y="216.2" text-anchor="end" font-size="9" font-family="Times New Roman, serif">16.0</text>
<line x1="42" y1="180.4" x2="318" y2="180.4" stroke="#999" stroke-width="0.6" stroke-dasharray="2 2"/>
<text x="35" y="183.4" text-anchor="end" font-size="9" font-family="Times New Roman, serif">32.0</text>
<line x1="42" y1="147.6" x2="318" y2="147.6" stroke="#999" stroke-width="0.6" stroke-dasharray="2 2"/>
<text x="35" y="150.6" text-anchor="end" font-size="9" font-family="Times New Roman, serif">48.0</text>
<line x1="42" y1="114.8" x2="318" y2="114.8" stroke="#999" stroke-width="0.6" stroke-dasharray="2 2"/>
<text x="35" y="117.8" text-anchor="end" font-size="9" font-family="Times New Roman, serif">64.0</text>
<line x1="42" y1="82.0" x2="318" y2="82.0" stroke="#999" stroke-width="0.6" stroke-dasharray="2 2"/>
<text x="35" y="85.0" text-anchor="end" font-size="9" font-family="Times New Roman, serif">80.0</text>
<line x1="42" y1="246" x2="318" y2="246" stroke="#444" stroke-width="0.8"/>
<line x1="42" y1="82" x2="42" y2="246" stroke="#444" stroke-width="0.8"/>
<rect x="91.5" y="102.3" width="18.0" height="143.7" fill="#f2aa45"/>
<text x="100.5" y="99.3" text-anchor="middle" font-size="8" font-family="Times New Roman, serif">70.1</text>
<rect x="112.5" y="100.8" width="18.0" height="145.2" fill="#9bc75f"/>
<text x="121.5" y="97.8" text-anchor="middle" font-size="8" font-family="Times New Roman, serif">70.8</text>
<text x="111.0" y="264" text-anchor="middle" font-size="10" font-family="Times New Roman, serif">Source decoder</text>
<rect x="229.5" y="103.2" width="18.0" height="142.8" fill="#f2aa45"/>
<text x="238.5" y="100.2" text-anchor="middle" font-size="8" font-family="Times New Roman, serif">69.7</text>
<rect x="250.5" y="100.9" width="18.0" height="145.1" fill="#9bc75f"/>
<text x="259.5" y="97.9" text-anchor="middle" font-size="8" font-family="Times New Roman, serif">70.8</text>
<text x="249.0" y="264" text-anchor="middle" font-size="10" font-family="Times New Roman, serif">Target decoder</text>
<text x="12" y="164.0" transform="rotate(-90 12 164.0)" text-anchor="middle" font-size="10" font-family="Times New Roman, serif">attributes recovered (%)</text>
<text x="495.0" y="63" text-anchor="middle" font-size="13" font-weight="600" font-family="Times New Roman, serif">(b) After canonical alignment</text>
<line x1="372" y1="246.0" x2="648" y2="246.0" stroke="#999" stroke-width="0.6" stroke-dasharray="2 2"/>
<text x="365" y="249.0" text-anchor="end" font-size="9" font-family="Times New Roman, serif">0.0</text>
<line x1="372" y1="213.2" x2="648" y2="213.2" stroke="#999" stroke-width="0.6" stroke-dasharray="2 2"/>
<text x="365" y="216.2" text-anchor="end" font-size="9" font-family="Times New Roman, serif">16.0</text>
<line x1="372" y1="180.4" x2="648" y2="180.4" stroke="#999" stroke-width="0.6" stroke-dasharray="2 2"/>
<text x="365" y="183.4" text-anchor="end" font-size="9" font-family="Times New Roman, serif">32.0</text>
<line x1="372" y1="147.6" x2="648" y2="147.6" stroke="#999" stroke-width="0.6" stroke-dasharray="2 2"/>
<text x="365" y="150.6" text-anchor="end" font-size="9" font-family="Times New Roman, serif">48.0</text>
<line x1="372" y1="114.8" x2="648" y2="114.8" stroke="#999" stroke-width="0.6" stroke-dasharray="2 2"/>
<text x="365" y="117.8" text-anchor="end" font-size="9" font-family="Times New Roman, serif">64.0</text>
<line x1="372" y1="82.0" x2="648" y2="82.0" stroke="#999" stroke-width="0.6" stroke-dasharray="2 2"/>
<text x="365" y="85.0" text-anchor="end" font-size="9" font-family="Times New Roman, serif">80.0</text>
<line x1="372" y1="246" x2="648" y2="246" stroke="#444" stroke-width="0.8"/>
<line x1="372" y1="82" x2="372" y2="246" stroke="#444" stroke-width="0.8"/>
<rect x="421.5" y="114.1" width="18.0" height="131.9" fill="#f2aa45"/>
<text x="430.5" y="111.1" text-anchor="middle" font-size="8" font-family="Times New Roman, serif">64.3</text>
<rect x="442.5" y="107.4" width="18.0" height="138.6" fill="#9bc75f"/>
<text x="451.5" y="104.4" text-anchor="middle" font-size="8" font-family="Times New Roman, serif">67.6</text>
<text x="441.0" y="264" text-anchor="middle" font-size="10" font-family="Times New Roman, serif">Source → target</text>
<rect x="559.5" y="137.6" width="18.0" height="108.4" fill="#f2aa45"/>
<text x="568.5" y="134.6" text-anchor="middle" font-size="8" font-family="Times New Roman, serif">52.9</text>
<rect x="580.5" y="110.7" width="18.0" height="135.3" fill="#9bc75f"/>
<text x="589.5" y="107.7" text-anchor="middle" font-size="8" font-family="Times New Roman, serif">66.0</text>
<text x="579.0" y="264" text-anchor="middle" font-size="10" font-family="Times New Roman, serif">Target → source</text>
<text x="342" y="164.0" transform="rotate(-90 342 164.0)" text-anchor="middle" font-size="10" font-family="Times New Roman, serif">attributes recovered (%)</text>
<text x="330.0" y="320" text-anchor="middle" font-size="11" font-family="Times New Roman, serif">OpenAI B/32 → LAION: deeper decoding preserves more attributes after applying Q or Qᵀ.</text>
</svg>
