<svg xmlns="http://www.w3.org/2000/svg" width="660" height="332" viewBox="0 0 660 332">
<rect width="100%" height="100%" fill="white"/>
<rect x="20" y="18" width="11" height="11" fill="#f2aa45"/>
<text x="36" y="28" font-size="11" font-family="Times New Roman, serif">Linear</text>
<rect x="106" y="18" width="11" height="11" fill="#9bc75f"/>
<text x="122" y="28" font-size="11" font-family="Times New Roman, serif">MLP</text>
<text x="165.0" y="63" text-anchor="middle" font-size="13" font-weight="600" font-family="Times New Roman, serif">(a) Recovered attributes</text>
<line x1="42" y1="246.0" x2="318" y2="246.0" stroke="#999" stroke-width="0.6" stroke-dasharray="2 2"/>
<text x="35" y="249.0" text-anchor="end" font-size="9" font-family="Times New Roman, serif">0.00</text>
<line x1="42" y1="213.2" x2="318" y2="213.2" stroke="#999" stroke-width="0.6" stroke-dasharray="2 2"/>
<text x="35" y="216.2" text-anchor="end" font-size="9" font-family="Times New Roman, serif">4.4</text>
<line x1="42" y1="180.4" x2="318" y2="180.4" stroke="#999" stroke-width="0.6" stroke-dasharray="2 2"/>
<text x="35" y="183.4" text-anchor="end" font-size="9" font-family="Times New Roman, serif">8.8</text>
<line x1="42" y1="147.6" x2="318" y2="147.6" stroke="#999" stroke-width="0.6" stroke-dasharray="2 2"/>
<text x="35" y="150.6" text-anchor="end" font-size="9" font-family="Times New Roman, serif">13.2</text>
<line x1="42" y1="114.8" x2="318" y2="114.8" stroke="#999" stroke-width="0.6" stroke-dasharray="2 2"/>
<text x="35" y="117.8" text-anchor="end" font-size="9" font-family="Times New Roman, serif">17.6</text>
<line x1="42" y1="82.0" x2="318" y2="82.0" stroke="#999" stroke-width="0.6" stroke-dasharray="2 2"/>
<text x="35" y="85.0" text-anchor="end" font-size="9" font-family="Times New Roman, serif">22.0</text>
<line x1="42" y1="246" x2="318" y2="246" stroke="#444" stroke-width="0.8"/>
<line x1="42" y1="82" x2="42" y2="246" stroke="#444" stroke-width="0.8"/>
<rect x="91.5" y="123.6" width="18.0" height="122.4" fill="#f2aa45"/>
<text x="100.5" y="120.6" text-anchor="middle" font-size="8" font-family="Times New Roman, serif">16.4</text>
<rect x="112.5" y="113.2" width="18.0" height="132.8" fill="#9bc75f"/>
<text x="121.5" y="110.2" text-anchor="middle" font-size="8" font-family="Times New Roman, serif">17.8</text>
<text x="111.0" y="264" text-anchor="middle" font-size="10" font-family="Times New Roman, serif">OpenAI->LAION</text>
<rect x="229.5" y="134.0" width="18.0" height="112.0" fill="#f2aa45"/>
<text x="238.5" y="131.0" text-anchor="middle" font-size="8" font-family="Times New Roman, serif">15.0</text>
<rect x="250.5" y="118.8" width="18.0" height="127.2" fill="#9bc75f"/>
<text x="259.5" y="115.8" text-anchor="middle" font-size="8" font-family="Times New Roman, serif">17.1</text>
<text x="249.0" y="264" text-anchor="middle" font-size="10" font-family="Times New Roman, serif">OpenAI->FLAVA</text>
<text x="12" y="164.0" transform="rotate(-90 12 164.0)" text-anchor="middle" font-size="10" font-family="Times New Roman, serif">attributes / bird</text>
<text x="495.0" y="63" text-anchor="middle" font-size="13" font-weight="600" font-family="Times New Roman, serif">(b) Within-species ranking</text>
<line x1="372" y1="246.0" x2="648" y2="246.0" stroke="#999" stroke-width="0.6" stroke-dasharray="2 2"/>
<text x="365" y="249.0" text-anchor="end" font-size="9" font-family="Times New Roman, serif">0.0</text>
<line x1="372" y1="213.2" x2="648" y2="213.2" stroke="#999" stroke-width="0.6" stroke-dasharray="2 2"/>
<text x="365" y="216.2" text-anchor="end" font-size="9" font-family="Times New Roman, serif">14.0</text>
<line x1="372" y1="180.4" x2="648" y2="180.4" stroke="#999" stroke-width="0.6" stroke-dasharray="2 2"/>
<text x="365" y="183.4" text-anchor="end" font-size="9" font-family="Times New Roman, serif">28.0</text>
<line x1="372" y1="147.6" x2="648" y2="147.6" stroke="#999" stroke-width="0.6" stroke-dasharray="2 2"/>
<text x="365" y="150.6" text-anchor="end" font-size="9" font-family="Times New Roman, serif">42.0</text>
<line x1="372" y1="114.8" x2="648" y2="114.8" stroke="#999" stroke-width="0.6" stroke-dasharray="2 2"/>
<text x="365" y="117.8" text-anchor="end" font-size="9" font-family="Times New Roman, serif">56.0</text>
<line x1="372" y1="82.0" x2="648" y2="82.0" stroke="#999" stroke-width="0.6" stroke-dasharray="2 2"/>
<text x="365" y="85.0" text-anchor="end" font-size="9" font-family="Times New Roman, serif">70.0</text>
<line x1="372" y1="128.9" x2="648" y2="128.9" stroke="#333" stroke-width="0.8" stroke-dasharray="4 3"/>
<line x1="372" y1="246" x2="648" y2="246" stroke="#444" stroke-width="0.8"/>
<line x1="372" y1="82" x2="372" y2="246" stroke="#444" stroke-width="0.8"/>
<rect x="421.5" y="106.2" width="18.0" height="139.8" fill="#f2aa45"/>
<text x="430.5" y="103.2" text-anchor="middle" font-size="8" font-family="Times New Roman, serif">59.7</text>
<rect x="442.5" y="106.6" width="18.0" height="139.4" fill="#9bc75f"/>
<text x="451.5" y="103.6" text-anchor="middle" font-size="8" font-family="Times New Roman, serif">59.5</text>
<text x="441.0" y="264" text-anchor="middle" font-size="10" font-family="Times New Roman, serif">OpenAI->LAION</text>
<rect x="559.5" y="111.4" width="18.0" height="134.6" fill="#f2aa45"/>
<text x="568.5" y="108.4" text-anchor="middle" font-size="8" font-family="Times New Roman, serif">57.4</text>
<rect x="580.5" y="111.8" width="18.0" height="134.2" fill="#9bc75f"/>
<text x="589.5" y="108.8" text-anchor="middle" font-size="8" font-family="Times New Roman, serif">57.3</text>
<text x="579.0" y="264" text-anchor="middle" font-size="10" font-family="Times New Roman, serif">OpenAI->FLAVA</text>
<text x="342" y="164.0" transform="rotate(-90 342 164.0)" text-anchor="middle" font-size="10" font-family="Times New Roman, serif">pair accuracy</text>
<text x="330.0" y="320" text-anchor="middle" font-size="11" font-family="Times New Roman, serif">The MLP recovers more attributes but does not improve species-controlled transfer.</text>
</svg>
